<?xml version="1.0" encoding="UTF-8"?>
<svg id="Capa_2" data-name="Capa 2" xmlns="http://www.w3.org/2000/svg" viewBox="0 0 25.25 40.56">
  <defs>
    <style>
      .cls-1 {
        fill: #fff;
      }
    </style>
  </defs>
  <g id="Capa_1-2" data-name="Capa 1">
    <path class="cls-1" d="m12.55,15.31c2.41,0,4.37-1.96,4.37-4.37s-1.96-4.37-4.37-4.37-4.37,1.96-4.37,4.37,1.96,4.37,4.37,4.37Zm0-7.39c1.67,0,3.02,1.35,3.02,3.02s-1.35,3.02-3.02,3.02-3.02-1.35-3.02-3.02,1.35-3.02,3.02-3.02Zm0,9.14c-2,0-3.62,1.62-3.62,3.62s1.62,3.62,3.62,3.62,3.62-1.62,3.62-3.62-1.62-3.62-3.62-3.62Zm0,5.89c-1.25,0-2.27-1.02-2.27-2.27s1.02-2.27,2.27-2.27,2.27,1.02,2.27,2.27-1.02,2.27-2.27,2.27Zm-9.97,6.63c.34,0,.68-.07,1.01-.21l3.51-1.47c-.73.88-1.43,2.26-1.37,4.28l.06,1.98c.02.56.35,1.05.87,1.27.52.22,1.1.12,1.52-.27.01,0,.03-.03.12.04.15,1.21.85,3.07,3.39,5.05.25.2.56.3.87.3s.61-.1.87-.3c2.54-1.99,3.25-3.84,3.43-5.11.04-.02.06,0,.08.02.42.38,1,.49,1.52.27.52-.22.86-.71.87-1.27l.06-1.98c.06-2.1-.7-3.5-1.45-4.37l3.73,1.57c.33.14.67.21,1.01.21.63,0,1.24-.23,1.73-.67.75-.68,1.04-1.7.75-2.66-.43-1.43-.77-2.74-1.02-3.88-.84-3.86-3.4-7.36-3.51-7.51,0,0-.02-.01-.03-.02-.03-.72-.09-1.44-.22-2.16-.76-4.38-3.23-8.57-5.17-11.31-.6-.85-1.58-1.36-2.63-1.36h0c-1.04,0-2.03.51-2.63,1.36-1.94,2.74-4.41,6.93-5.17,11.31-.14.78-.21,1.56-.24,2.34-.5.71-2.64,3.89-3.4,7.36-.25,1.15-.59,2.45-1.02,3.88-.29.97,0,1.99.75,2.66.49.44,1.1.67,1.73.67Zm15.44,2.56l-.06,1.98s0,.05-.04.06c-.04.02-.07,0-.08-.01-.39-.37-.96-.48-1.46-.29-.5.18-.85.63-.92,1.16-.11.96-.71,2.45-2.95,4.15-2.17-1.7-2.77-3.2-2.88-4.15-.06-.53-.42-.97-.92-1.16-.5-.19-1.06-.07-1.46.29-.01.01-.03.03-.08.01-.04-.02-.04-.05-.04-.06l-.06-1.98c-.08-2.63,1.43-3.85,1.96-4.2.16.03.33.04.5.04h5.52c.29,0,.58-.04.86-.12.33.19,2.17,1.39,2.09,4.28Zm2.49-14.94c.79,1.33,1.83,3.36,2.28,5.46.26,1.18.61,2.52,1.05,3.98.14.47,0,.94-.36,1.27-.37.33-.86.41-1.31.22l-4.29-1.8c.04-.07.08-.14.12-.21.91-1.96,2.19-5.27,2.52-8.92Zm-14.41-4.29c.72-4.14,3.08-8.14,4.94-10.76.35-.5.91-.79,1.52-.79s1.17.29,1.53.79c1.86,2.63,4.22,6.63,4.94,10.76.86,4.92-1.05,10.03-2.26,12.64-.31.66-.97,1.08-1.7,1.08h-5.52c-.77,0-1.47-.48-1.75-1.19-1-2.59-2.55-7.65-1.7-12.54ZM1.41,26.64c.44-1.46.79-2.8,1.05-3.98.43-1.95,1.36-3.85,2.12-5.17.25,3.46,1.25,6.57,1.97,8.44.08.22.2.42.33.61l-3.79,1.59c-.45.19-.94.11-1.31-.22-.36-.33-.5-.8-.36-1.27Z"/>
  </g>
</svg>